<svg width="24" height="24" viewBox="0 0 24 24" fill="none" xmlns="http://www.w3.org/2000/svg">
<path fill-rule="evenodd" clip-rule="evenodd" d="M1.25 5.25C1.25 3.84987 1.25 3.1498 1.52248 2.61502C1.76217 2.14462 2.14462 1.76217 2.61502 1.52248C3.1498 1.25 3.84987 1.25 5.25 1.25H6.75C8.15013 1.25 8.8502 1.25 9.38498 1.52248C9.85538 1.76217 10.2378 2.14462 10.4775 2.61502C10.75 3.1498 10.75 3.84987 10.75 5.25V6.75C10.75 8.15013 10.75 8.8502 10.4775 9.38498C10.2378 9.85538 9.85538 10.2378 9.38498 10.4775C8.8502 10.75 8.15013 10.75 6.75 10.75H5.25C3.84987 10.75 3.1498 10.75 2.61502 10.4775C2.14462 10.2378 1.76217 9.85538 1.52248 9.38498C1.25 8.8502 1.25 8.15013 1.25 6.75V5.25ZM22.75 5.25C22.75 3.84987 22.75 3.1498 22.4775 2.61502C22.2378 2.14462 21.8554 1.76217 21.385 1.52248C20.8502 1.25 20.1501 1.25 18.75 1.25H17.25C15.8499 1.25 15.1498 1.25 14.615 1.52248C14.1446 1.76217 13.7622 2.14462 13.5225 2.61502C13.25 3.1498 13.25 3.84987 13.25 5.25V6.75C13.25 8.15013 13.25 8.8502 13.5225 9.38498C13.7622 9.85538 14.1446 10.2378 14.615 10.4775C15.1498 10.75 15.8499 10.75 17.25 10.75H18.75C20.1501 10.75 20.8502 10.75 21.385 10.4775C21.8554 10.2378 22.2378 9.85538 22.4775 9.38498C22.75 8.8502 22.75 8.15013 22.75 6.75V5.25ZM1.25 17.25C1.25 15.8499 1.25 15.1498 1.52248 14.615C1.76217 14.1446 2.14462 13.7622 2.61502 13.5225C3.1498 13.25 3.84987 13.25 5.25 13.25H6.75C8.15013 13.25 8.8502 13.25 9.38498 13.5225C9.85538 13.7622 10.2378 14.1446 10.4775 14.615C10.75 15.1498 10.75 15.8499 10.75 17.25V18.75C10.75 20.1501 10.75 20.8502 10.4775 21.385C10.2378 21.8554 9.85538 22.2378 9.38498 22.4775C8.8502 22.75 8.15013 22.75 6.75 22.75H5.25C3.84987 22.75 3.1498 22.75 2.61502 22.4775C2.14462 22.2378 1.76217 21.8554 1.52248 21.385C1.25 20.8502 1.25 20.1501 1.25 18.75V17.25ZM22.75 17.25C22.75 15.8499 22.75 15.1498 22.4775 14.615C22.2378 14.1446 21.8554 13.7622 21.385 13.5225C20.8502 13.25 20.1501 13.25 18.75 13.25H17.25C15.8499 13.25 15.1498 13.25 14.615 13.5225C14.1446 13.7622 13.7622 14.1446 13.5225 14.615C13.25 15.1498 13.25 15.8499 13.25 17.25V18.75C13.25 20.1501 13.25 20.8502 13.5225 21.385C13.7622 21.8554 14.1446 22.2378 14.615 22.4775C15.1498 22.75 15.8499 22.75 17.25 22.75H18.75C20.1501 22.75 20.8502 22.75 21.385 22.4775C21.8554 22.2378 22.2378 21.8554 22.4775 21.385C22.75 20.8502 22.75 20.1501 22.75 18.75V17.25Z" fill="white"/>
</svg>
